<svg width="1127" height="629" viewBox="0 0 1127 629" fill="none" xmlns="http://www.w3.org/2000/svg">
<path d="M212 0H922L1126.5 549.5H2L212 0Z" fill="#D3A56E"/>
<rect y="546" width="1127" height="42" fill="#987144"/>
<rect x="44" y="588" width="52" height="41" fill="#D3A56E"/>
<rect x="95" y="588" width="11" height="41" fill="#B99B78"/>
<rect x="254" y="588" width="31.871" height="41" fill="#D3A56E"/>
<rect x="285.258" y="588" width="6.74194" height="41" fill="#B99B78"/>
<rect width="31.871" height="41" transform="matrix(-1 0 0 1 888 588)" fill="#D3A56E"/>
<rect width="6.74194" height="41" transform="matrix(-1 0 0 1 856.742 588)" fill="#B99B78"/>
<rect width="49.4839" height="41" transform="matrix(-1 0 0 1 1064 588)" fill="#D3A56E"/>
<rect width="10.4677" height="41" transform="matrix(-1 0 0 1 1015.47 588)" fill="#B99B78"/>
</svg>
